<svg width="32" height="33" viewBox="0 0 32 33" fill="none" xmlns="http://www.w3.org/2000/svg">
<path d="M12.9476 15.8034C12.6965 15.5523 12.356 15.4113 12.0009 15.4113C11.6458 15.4113 11.3053 15.5523 11.0542 15.8034C10.8032 16.0545 10.6621 16.395 10.6621 16.7501C10.6621 17.1051 10.8032 17.4457 11.0542 17.6967L15.0542 21.6967C15.1788 21.8203 15.3266 21.9181 15.489 21.9844C15.6515 22.0508 15.8254 22.0844 16.0009 22.0834C16.1834 22.0776 16.3628 22.0344 16.528 21.9564C16.6931 21.8784 16.8405 21.7674 16.9609 21.6301L26.2942 10.9634C26.5097 10.6958 26.6136 10.3554 26.5843 10.0131C26.5549 9.67081 26.3946 9.35305 26.1367 9.12608C25.8788 8.89912 25.5432 8.78047 25.1999 8.79487C24.8567 8.80928 24.5322 8.95563 24.2942 9.20341L16.0009 18.8034L12.9476 15.8034Z" fill="#52C41A" stroke="#52C41A" stroke-width="0.2"/>
<path d="M28.0004 15.4167C27.6468 15.4167 27.3076 15.5572 27.0576 15.8073C26.8075 16.0573 26.6671 16.3965 26.6671 16.7501C26.6671 19.5791 25.5433 22.2922 23.5429 24.2926C21.5425 26.2929 18.8294 27.4167 16.0004 27.4167C13.8939 27.4158 11.8348 26.7911 10.0828 25.6215C8.33075 24.4518 6.9643 22.7896 6.15571 20.8444C5.34712 18.8993 5.13259 16.7582 5.53919 14.6913C5.94578 12.6243 6.95528 10.7241 8.4404 9.23008C9.42801 8.22926 10.6053 7.43547 11.9034 6.89517C13.2015 6.35486 14.5943 6.07889 16.0004 6.08341C16.853 6.08875 17.7025 6.18711 18.5337 6.37675C18.7077 6.43055 18.8908 6.44816 19.0718 6.42848C19.2529 6.4088 19.4279 6.35225 19.5863 6.26232C19.7446 6.17239 19.8828 6.05098 19.9924 5.90558C20.102 5.76018 20.1807 5.59387 20.2236 5.4169C20.2665 5.23993 20.2726 5.05606 20.2417 4.87661C20.2108 4.69717 20.1435 4.52596 20.0439 4.37354C19.9442 4.22111 19.8145 4.09071 19.6625 3.99036C19.5106 3.89002 19.3397 3.82186 19.1604 3.79008C18.1246 3.54641 17.0645 3.42116 16.0004 3.41675C13.3662 3.43043 10.7951 4.22411 8.61146 5.69762C6.42788 7.17113 4.7297 9.25843 3.73123 11.6961C2.73276 14.1338 2.47875 16.8126 3.00125 19.3946C3.52375 21.9765 4.79935 24.3458 6.66707 26.2034C9.14266 28.6801 12.4986 30.0752 16.0004 30.0834C19.5366 30.0834 22.928 28.6787 25.4285 26.1782C27.929 23.6777 29.3337 20.2863 29.3337 16.7501C29.3337 16.3965 29.1933 16.0573 28.9432 15.8073C28.6932 15.5572 28.354 15.4167 28.0004 15.4167Z" fill="#52C41A" stroke="#52C41A" stroke-width="0.2"/>
</svg>
